<svg xmlns="http://www.w3.org/2000/svg" viewBox="0 0 40 40">
  <defs>
    <linearGradient id="g" x1="0" y1="0" x2="40" y2="40">
      <stop offset="0" stop-color="#8b6cff"/><stop offset=".55" stop-color="#6d47f5"/><stop offset="1" stop-color="#f5a623"/>
    </linearGradient>
  </defs>
  <rect width="40" height="40" rx="9" fill="#110d24"/>
  <path d="M20 6 31.5 10.6v8.9c0 6.5-4.6 11.3-11.5 13.7-6.9-2.4-11.5-7.2-11.5-13.7v-8.9L20 6Z" fill="url(#g)" opacity=".25"/>
  <path d="M20 6 31.5 10.6v8.9c0 6.5-4.6 11.3-11.5 13.7-6.9-2.4-11.5-7.2-11.5-13.7v-8.9L20 6Z" stroke="url(#g)" stroke-width="2" stroke-linejoin="round" fill="none"/>
  <circle cx="20" cy="18" r="3" fill="url(#g)"/>
  <path d="M14 26c.9-3.2 3.2-4.8 6-4.8s5.1 1.6 6 4.8" stroke="url(#g)" stroke-width="2" stroke-linecap="round" fill="none"/>
</svg>
